STARTFONT 2.1
FONT -Monotype-Century Gothic-Regular-R-Normal--12-120-75-75-P-58-iso8859-2
SIZE 12 75 75
FONTBOUNDINGBOX 17 16 -2 -3

STARTPROPERTIES 22
FOUNDRY "Monotype"
FAMILY_NAME "Century Gothic"
WEIGHT_NAME "Regular"
SLANT "R"
SETWIDTH_NAME "Normal"
ADD_STYLE_NAME ""
PIXEL_SIZE 12
POINT_SIZE 120
RESOLUTION_X 75
RESOLUTION_Y 75
SPACING "P"
AVERAGE_WIDTH 58
CHARSET_REGISTRY "iso8859"
CHARSET_ENCODING "2"
COPYRIGHT "Copyright (c) 1996 Monotype Typography Ltd."
CAP_HEIGHT 11
X_HEIGHT 8
WEIGHT 10
QUAD_WIDTH 8
DEFAULT_CHAR 160
FONT_DESCENT 3
FONT_ASCENT 13
ENDPROPERTIES

CHARS 191

STARTCHAR space
ENCODING 32
SWIDTH 277 0
DWIDTH 4 0
BBX 0 0 0 0
BITMAP
ENDCHAR

STARTCHAR exclam
ENCODING 33
SWIDTH 295 0
DWIDTH 3 0
BBX 1 10 1 0
BITMAP
80
80
80
80
80
80
80
80
00
80
ENDCHAR

STARTCHAR quotedbl
ENCODING 34
SWIDTH 309 0
DWIDTH 4 0
BBX 4 3 0 7
BITMAP
90
90
90
ENDCHAR

STARTCHAR numbersign
ENCODING 35
SWIDTH 720 0
DWIDTH 9 0
BBX 8 10 1 0
BITMAP
24
24
24
7F
24
24
FE
48
48
48
ENDCHAR

STARTCHAR dollar
ENCODING 36
SWIDTH 554 0
DWIDTH 7 0
BBX 5 13 1 -2
BITMAP
20
70
A8
A0
A0
60
30
28
28
A8
70
20
20
ENDCHAR

STARTCHAR percent
ENCODING 37
SWIDTH 775 0
DWIDTH 10 0
BBX 11 10 0 0
BITMAP
7180
8E80
8900
7100
0200
0400
05C0
0A20
1220
11C0
ENDCHAR

STARTCHAR ampersand
ENCODING 38
SWIDTH 757 0
DWIDTH 10 0
BBX 8 9 1 0
BITMAP
30
48
48
30
30
49
86
8A
71
ENDCHAR

STARTCHAR quoteright
ENCODING 39
SWIDTH 351 0
DWIDTH 5 0
BBX 2 4 2 6
BITMAP
40
40
40
80
ENDCHAR

STARTCHAR parenleft
ENCODING 40
SWIDTH 369 0
DWIDTH 5 0
BBX 3 13 1 -3
BITMAP
20
40
40
80
80
80
80
80
80
80
40
40
20
ENDCHAR

STARTCHAR parenright
ENCODING 41
SWIDTH 369 0
DWIDTH 5 0
BBX 3 13 1 -3
BITMAP
80
40
40
20
20
20
20
20
20
20
40
40
80
ENDCHAR

STARTCHAR asterisk
ENCODING 42
SWIDTH 425 0
DWIDTH 6 0
BBX 4 5 1 5
BITMAP
20
B0
60
D0
40
ENDCHAR

STARTCHAR plus
ENCODING 43
SWIDTH 606 0
DWIDTH 8 0
BBX 7 7 1 1
BITMAP
10
10
10
FE
10
10
10
ENDCHAR

STARTCHAR comma
ENCODING 44
SWIDTH 277 0
DWIDTH 4 0
BBX 2 3 1 -2
BITMAP
40
40
80
ENDCHAR

STARTCHAR minus
ENCODING 45
SWIDTH 606 0
DWIDTH 8 0
BBX 6 1 1 4
BITMAP
FC
ENDCHAR

STARTCHAR period
ENCODING 46
SWIDTH 277 0
DWIDTH 4 0
BBX 1 2 1 0
BITMAP
80
80
ENDCHAR

STARTCHAR slash
ENCODING 47
SWIDTH 437 0
DWIDTH 6 0
BBX 5 12 1 -2
BITMAP
08
08
10
10
10
20
20
40
40
40
80
80
ENDCHAR

STARTCHAR zero
ENCODING 48
SWIDTH 554 0
DWIDTH 7 0
BBX 6 10 1 0
BITMAP
30
48
84
84
84
84
84
84
48
30
ENDCHAR

STARTCHAR one
ENCODING 49
SWIDTH 554 0
DWIDTH 7 0
BBX 2 10 3 0
BITMAP
C0
40
40
40
40
40
40
40
40
40
ENDCHAR

STARTCHAR two
ENCODING 50
SWIDTH 554 0
DWIDTH 7 0
BBX 6 10 1 0
BITMAP
30
48
84
04
04
08
10
20
40
FC
ENDCHAR

STARTCHAR three
ENCODING 51
SWIDTH 554 0
DWIDTH 7 0
BBX 5 10 1 0
BITMAP
70
88
08
08
30
08
08
88
88
70
ENDCHAR

STARTCHAR four
ENCODING 52
SWIDTH 554 0
DWIDTH 7 0
BBX 6 10 1 0
BITMAP
08
18
18
28
28
48
88
FC
08
08
ENDCHAR

STARTCHAR five
ENCODING 53
SWIDTH 554 0
DWIDTH 7 0
BBX 6 10 1 0
BITMAP
7C
40
40
70
48
04
04
84
88
70
ENDCHAR

STARTCHAR six
ENCODING 54
SWIDTH 554 0
DWIDTH 7 0
BBX 6 10 1 0
BITMAP
08
10
20
40
78
84
84
84
48
30
ENDCHAR

STARTCHAR seven
ENCODING 55
SWIDTH 554 0
DWIDTH 7 0
BBX 6 10 1 0
BITMAP
FC
08
08
10
10
20
20
40
40
80
ENDCHAR

STARTCHAR eight
ENCODING 56
SWIDTH 554 0
DWIDTH 7 0
BBX 6 10 1 0
BITMAP
78
84
84
48
30
48
84
84
84
78
ENDCHAR

STARTCHAR nine
ENCODING 57
SWIDTH 554 0
DWIDTH 7 0
BBX 6 10 1 0
BITMAP
30
48
84
84
84
78
08
10
20
40
ENDCHAR

STARTCHAR colon
ENCODING 58
SWIDTH 277 0
DWIDTH 4 0
BBX 1 7 1 0
BITMAP
80
80
00
00
00
80
80
ENDCHAR

STARTCHAR semicolon
ENCODING 59
SWIDTH 277 0
DWIDTH 4 0
BBX 2 8 1 -1
BITMAP
40
40
00
00
00
40
40
80
ENDCHAR

STARTCHAR less
ENCODING 60
SWIDTH 606 0
DWIDTH 8 0
BBX 6 7 1 1
BITMAP
04
18
60
80
60
18
04
ENDCHAR

STARTCHAR equal
ENCODING 61
SWIDTH 606 0
DWIDTH 8 0
BBX 6 4 1 3
BITMAP
FC
00
00
FC
ENDCHAR

STARTCHAR greater
ENCODING 62
SWIDTH 606 0
DWIDTH 8 0
BBX 6 7 1 1
BITMAP
80
60
18
04
18
60
80
ENDCHAR

STARTCHAR question
ENCODING 63
SWIDTH 591 0
DWIDTH 8 0
BBX 6 10 1 0
BITMAP
38
44
84
08
30
40
48
30
00
10
ENDCHAR

STARTCHAR at
ENCODING 64
SWIDTH 867 0
DWIDTH 11 0
BBX 10 10 1 0
BITMAP
1F00
2080
4A40
9640
A240
A240
9680
4B00
2080
1F00
ENDCHAR

STARTCHAR A
ENCODING 65
SWIDTH 740 0
DWIDTH 9 0
BBX 9 10 0 0
BITMAP
0800
0800
1400
1400
2200
2200
7F00
4100
8080
8080
ENDCHAR

STARTCHAR B
ENCODING 66
SWIDTH 574 0
DWIDTH 8 0
BBX 6 10 1 0
BITMAP
F0
88
88
88
F0
88
84
84
84
F8
ENDCHAR

STARTCHAR C
ENCODING 67
SWIDTH 813 0
DWIDTH 11 0
BBX 9 10 1 0
BITMAP
1E00
6180
4080
8000
8000
8000
8000
4080
6180
1E00
ENDCHAR

STARTCHAR D
ENCODING 68
SWIDTH 744 0
DWIDTH 10 0
BBX 8 10 1 0
BITMAP
F8
86
82
81
81
81
81
82
86
F8
ENDCHAR

STARTCHAR E
ENCODING 69
SWIDTH 536 0
DWIDTH 7 0
BBX 5 10 1 0
BITMAP
F8
80
80
80
F8
80
80
80
80
F8
ENDCHAR

STARTCHAR F
ENCODING 70
SWIDTH 485 0
DWIDTH 6 0
BBX 5 10 1 0
BITMAP
F8
80
80
80
F8
80
80
80
80
80
ENDCHAR

STARTCHAR G
ENCODING 71
SWIDTH 872 0
DWIDTH 11 0
BBX 10 10 1 0
BITMAP
1E00
6180
4080
8000
8000
83C0
8040
4080
6180
1E00
ENDCHAR

STARTCHAR H
ENCODING 72
SWIDTH 683 0
DWIDTH 9 0
BBX 7 10 1 0
BITMAP
82
82
82
82
FE
82
82
82
82
82
ENDCHAR

STARTCHAR I
ENCODING 73
SWIDTH 226 0
DWIDTH 3 0
BBX 1 10 1 0
BITMAP
80
80
80
80
80
80
80
80
80
80
ENDCHAR

STARTCHAR J
ENCODING 74
SWIDTH 482 0
DWIDTH 6 0
BBX 5 10 0 0
BITMAP
08
08
08
08
08
08
08
08
88
70
ENDCHAR

STARTCHAR K
ENCODING 75
SWIDTH 591 0
DWIDTH 8 0
BBX 6 10 1 0
BITMAP
84
88
90
A0
C0
C0
A0
90
88
84
ENDCHAR

STARTCHAR L
ENCODING 76
SWIDTH 462 0
DWIDTH 6 0
BBX 5 10 1 0
BITMAP
80
80
80
80
80
80
80
80
80
F8
ENDCHAR

STARTCHAR M
ENCODING 77
SWIDTH 919 0
DWIDTH 13 0
BBX 11 10 1 0
BITMAP
2080
2080
2080
5140
5140
4A40
4A40
8A20
8420
8420
ENDCHAR

STARTCHAR N
ENCODING 78
SWIDTH 740 0
DWIDTH 9 0
BBX 7 10 1 0
BITMAP
82
C2
A2
A2
92
92
8A
8A
86
82
ENDCHAR

STARTCHAR O
ENCODING 79
SWIDTH 869 0
DWIDTH 12 0
BBX 10 10 1 0
BITMAP
1E00
6180
4080
8040
8040
8040
8040
4080
6180
1E00
ENDCHAR

STARTCHAR P
ENCODING 80
SWIDTH 592 0
DWIDTH 8 0
BBX 6 10 1 0
BITMAP
F8
84
84
84
F8
80
80
80
80
80
ENDCHAR

STARTCHAR Q
ENCODING 81
SWIDTH 871 0
DWIDTH 12 0
BBX 10 10 1 0
BITMAP
1E00
6180
4080
8040
8040
8040
8640
4280
6180
1EC0
ENDCHAR

STARTCHAR R
ENCODING 82
SWIDTH 607 0
DWIDTH 8 0
BBX 6 10 1 0
BITMAP
F8
84
84
84
F8
A0
90
88
88
84
ENDCHAR

STARTCHAR S
ENCODING 83
SWIDTH 498 0
DWIDTH 7 0
BBX 5 10 1 0
BITMAP
70
88
80
80
60
10
08
08
88
70
ENDCHAR

STARTCHAR T
ENCODING 84
SWIDTH 426 0
DWIDTH 5 0
BBX 5 10 0 0
BITMAP
F8
20
20
20
20
20
20
20
20
20
ENDCHAR

STARTCHAR U
ENCODING 85
SWIDTH 655 0
DWIDTH 9 0
BBX 7 10 1 0
BITMAP
82
82
82
82
82
82
82
82
44
38
ENDCHAR

STARTCHAR V
ENCODING 86
SWIDTH 702 0
DWIDTH 9 0
BBX 9 10 0 0
BITMAP
8080
8080
4100
4100
2200
2200
1400
1400
0800
0800
ENDCHAR

STARTCHAR W
ENCODING 87
SWIDTH 960 0
DWIDTH 13 0
BBX 11 10 1 0
BITMAP
8420
8420
8A20
8A20
5140
5140
5140
2080
2080
2080
ENDCHAR

STARTCHAR X
ENCODING 88
SWIDTH 609 0
DWIDTH 8 0
BBX 6 10 1 0
BITMAP
84
84
48
48
30
30
48
48
84
84
ENDCHAR

STARTCHAR Y
ENCODING 89
SWIDTH 592 0
DWIDTH 7 0
BBX 7 10 0 0
BITMAP
82
82
44
44
28
10
10
10
10
10
ENDCHAR

STARTCHAR Z
ENCODING 90
SWIDTH 480 0
DWIDTH 6 0
BBX 6 10 0 0
BITMAP
FC
08
08
10
10
20
20
40
40
FC
ENDCHAR

STARTCHAR bracketleft
ENCODING 91
SWIDTH 351 0
DWIDTH 5 0
BBX 2 13 2 -3
BITMAP
C0
80
80
80
80
80
80
80
80
80
80
80
C0
ENDCHAR

STARTCHAR backslash
ENCODING 92
SWIDTH 605 0
DWIDTH 8 0
BBX 7 12 1 -2
BITMAP
80
40
40
20
20
10
10
08
08
04
04
02
ENDCHAR

STARTCHAR bracketright
ENCODING 93
SWIDTH 351 0
DWIDTH 5 0
BBX 2 13 2 -3
BITMAP
C0
40
40
40
40
40
40
40
40
40
40
40
C0
ENDCHAR

STARTCHAR asciicircum
ENCODING 94
SWIDTH 672 0
DWIDTH 9 0
BBX 7 7 1 3
BITMAP
10
10
28
28
44
44
82
ENDCHAR

STARTCHAR underscore
ENCODING 95
SWIDTH 500 0
DWIDTH 7 0
BBX 7 1 0 -2
BITMAP
FE
ENDCHAR

STARTCHAR quoteleft
ENCODING 96
SWIDTH 351 0
DWIDTH 5 0
BBX 2 4 2 6
BITMAP
40
80
80
80
ENDCHAR

STARTCHAR a
ENCODING 97
SWIDTH 683 0
DWIDTH 9 0
BBX 7 7 1 0
BITMAP
3A
46
82
82
82
46
3A
ENDCHAR

STARTCHAR b
ENCODING 98
SWIDTH 682 0
DWIDTH 9 0
BBX 7 10 1 0
BITMAP
80
80
80
B8
C4
82
82
82
C4
B8
ENDCHAR

STARTCHAR c
ENCODING 99
SWIDTH 647 0
DWIDTH 7 0
BBX 6 7 1 0
BITMAP
38
44
80
80
80
44
38
ENDCHAR

STARTCHAR d
ENCODING 100
SWIDTH 685 0
DWIDTH 9 0
BBX 7 10 1 0
BITMAP
02
02
02
3A
46
82
82
82
46
3A
ENDCHAR

STARTCHAR e
ENCODING 101
SWIDTH 650 0
DWIDTH 8 0
BBX 7 7 1 0
BITMAP
38
44
82
FE
80
44
38
ENDCHAR

STARTCHAR f
ENCODING 102
SWIDTH 314 0
DWIDTH 4 0
BBX 4 10 0 0
BITMAP
30
40
40
E0
40
40
40
40
40
40
ENDCHAR

STARTCHAR g
ENCODING 103
SWIDTH 673 0
DWIDTH 9 0
BBX 7 10 1 -3
BITMAP
3A
46
82
82
82
46
3A
02
44
38
ENDCHAR

STARTCHAR h
ENCODING 104
SWIDTH 610 0
DWIDTH 8 0
BBX 6 10 1 0
BITMAP
80
80
80
B8
C4
84
84
84
84
84
ENDCHAR

STARTCHAR i
ENCODING 105
SWIDTH 200 0
DWIDTH 3 0
BBX 1 10 1 0
BITMAP
80
00
00
80
80
80
80
80
80
80
ENDCHAR

STARTCHAR j
ENCODING 106
SWIDTH 203 0
DWIDTH 3 0
BBX 2 13 0 -3
BITMAP
40
00
00
40
40
40
40
40
40
40
40
40
80
ENDCHAR

STARTCHAR k
ENCODING 107
SWIDTH 502 0
DWIDTH 7 0
BBX 5 10 1 0
BITMAP
80
80
80
88
90
A0
C0
A0
90
88
ENDCHAR

STARTCHAR l
ENCODING 108
SWIDTH 200 0
DWIDTH 3 0
BBX 1 10 1 0
BITMAP
80
80
80
80
80
80
80
80
80
80
ENDCHAR

STARTCHAR m
ENCODING 109
SWIDTH 938 0
DWIDTH 13 0
BBX 11 7 1 0
BITMAP
B9C0
C620
8420
8420
8420
8420
8420
ENDCHAR

STARTCHAR n
ENCODING 110
SWIDTH 610 0
DWIDTH 8 0
BBX 6 7 1 0
BITMAP
B8
C4
84
84
84
84
84
ENDCHAR

STARTCHAR o
ENCODING 111
SWIDTH 655 0
DWIDTH 9 0
BBX 7 7 1 0
BITMAP
38
44
82
82
82
44
38
ENDCHAR

STARTCHAR p
ENCODING 112
SWIDTH 682 0
DWIDTH 9 0
BBX 7 10 1 -3
BITMAP
B8
C4
82
82
82
C4
B8
80
80
80
ENDCHAR

STARTCHAR q
ENCODING 113
SWIDTH 682 0
DWIDTH 9 0
BBX 7 10 1 -3
BITMAP
3A
46
82
82
82
46
3A
02
02
02
ENDCHAR

STARTCHAR r
ENCODING 114
SWIDTH 301 0
DWIDTH 5 0
BBX 4 7 1 0
BITMAP
B0
C0
80
80
80
80
80
ENDCHAR

STARTCHAR s
ENCODING 115
SWIDTH 388 0
DWIDTH 6 0
BBX 4 7 1 0
BITMAP
60
90
80
60
10
90
60
ENDCHAR

STARTCHAR t
ENCODING 116
SWIDTH 339 0
DWIDTH 3 0
BBX 3 10 0 0
BITMAP
40
40
40
E0
40
40
40
40
40
40
ENDCHAR

STARTCHAR u
ENCODING 117
SWIDTH 608 0
DWIDTH 8 0
BBX 6 7 1 0
BITMAP
84
84
84
84
84
84
78
ENDCHAR

STARTCHAR v
ENCODING 118
SWIDTH 554 0
DWIDTH 7 0
BBX 7 7 0 0
BITMAP
82
82
44
44
28
28
10
ENDCHAR

STARTCHAR w
ENCODING 119
SWIDTH 831 0
DWIDTH 11 0
BBX 9 7 1 0
BITMAP
8880
8880
9480
5500
5500
2200
2200
ENDCHAR

STARTCHAR x
ENCODING 120
SWIDTH 480 0
DWIDTH 6 0
BBX 6 7 0 0
BITMAP
84
48
48
30
48
48
84
ENDCHAR

STARTCHAR y
ENCODING 121
SWIDTH 536 0
DWIDTH 7 0
BBX 7 10 0 -3
BITMAP
82
82
44
44
28
28
10
10
20
20
ENDCHAR

STARTCHAR z
ENCODING 122
SWIDTH 425 0
DWIDTH 6 0
BBX 6 7 0 0
BITMAP
FC
08
10
20
20
40
FC
ENDCHAR

STARTCHAR braceleft
ENCODING 123
SWIDTH 351 0
DWIDTH 5 0
BBX 3 12 1 -2
BITMAP
20
40
40
40
40
80
40
40
40
40
40
20
ENDCHAR

STARTCHAR bar
ENCODING 124
SWIDTH 672 0
DWIDTH 9 0
BBX 1 13 4 -3
BITMAP
80
80
80
80
80
80
80
80
80
80
80
80
80
ENDCHAR

STARTCHAR braceright
ENCODING 125
SWIDTH 351 0
DWIDTH 5 0
BBX 3 12 1 -2
BITMAP
80
40
40
40
40
20
40
40
40
40
40
80
ENDCHAR

STARTCHAR asciitilde
ENCODING 126
SWIDTH 606 0
DWIDTH 8 0
BBX 6 2 1 4
BITMAP
64
98
ENDCHAR

STARTCHAR space
ENCODING 160
SWIDTH 277 0
DWIDTH 4 0
BBX 0 0 0 0
BITMAP
ENDCHAR

STARTCHAR Aogonek
ENCODING 161
SWIDTH 740 0
DWIDTH 9 0
BBX 11 12 0 -2
BITMAP
0800
0800
1400
1400
2200
2200
7F00
4100
8080
8080
0080
0060
ENDCHAR

STARTCHAR breve
ENCODING 162
SWIDTH 453 0
DWIDTH 6 0
BBX 6 2 0 8
BITMAP
84
78
ENDCHAR

STARTCHAR Lslash
ENCODING 163
SWIDTH 517 0
DWIDTH 6 0
BBX 6 10 0 0
BITMAP
40
40
40
50
60
40
C0
40
40
7C
ENDCHAR

STARTCHAR currency
ENCODING 164
SWIDTH 554 0
DWIDTH 7 0
BBX 7 7 0 1
BITMAP
BA
44
82
82
82
44
BA
ENDCHAR

STARTCHAR Lcaron
ENCODING 165
SWIDTH 462 0
DWIDTH 6 0
BBX 5 10 1 0
BITMAP
90
90
A0
80
80
80
80
80
80
F8
ENDCHAR

STARTCHAR Sacute
ENCODING 166
SWIDTH 498 0
DWIDTH 7 0
BBX 5 13 1 0
BITMAP
10
20
00
70
88
80
80
60
10
08
08
88
70
ENDCHAR

STARTCHAR section
ENCODING 167
SWIDTH 615 0
DWIDTH 8 0
BBX 5 13 2 -3
BITMAP
70
88
80
40
60
90
88
48
30
10
08
88
70
ENDCHAR

STARTCHAR dieresis
ENCODING 168
SWIDTH 369 0
DWIDTH 5 0
BBX 4 1 1 8
BITMAP
90
ENDCHAR

STARTCHAR Scaron
ENCODING 169
SWIDTH 498 0
DWIDTH 7 0
BBX 5 13 1 0
BITMAP
88
70
00
70
88
80
80
60
10
08
08
88
70
ENDCHAR

STARTCHAR Scommaaccent
ENCODING 170
SWIDTH 498 0
DWIDTH 7 0
BBX 5 13 1 -3
BITMAP
70
88
80
80
60
10
08
08
88
70
00
20
40
ENDCHAR

STARTCHAR Tcaron
ENCODING 171
SWIDTH 426 0
DWIDTH 5 0
BBX 5 13 0 0
BITMAP
88
70
00
F8
20
20
20
20
20
20
20
20
20
ENDCHAR

STARTCHAR Zacute
ENCODING 172
SWIDTH 480 0
DWIDTH 6 0
BBX 6 13 0 0
BITMAP
08
10
00
FC
08
08
10
10
20
20
40
40
FC
ENDCHAR

STARTCHAR hyphen
ENCODING 173
SWIDTH 332 0
DWIDTH 4 0
BBX 4 1 0 3
BITMAP
F0
ENDCHAR

STARTCHAR Zcaron
ENCODING 174
SWIDTH 480 0
DWIDTH 6 0
BBX 6 13 0 0
BITMAP
48
30
00
FC
08
08
10
10
20
20
40
40
FC
ENDCHAR

STARTCHAR Zdotaccent
ENCODING 175
SWIDTH 480 0
DWIDTH 6 0
BBX 6 12 0 0
BITMAP
10
00
FC
08
08
10
10
20
20
40
40
FC
ENDCHAR

STARTCHAR degree
ENCODING 176
SWIDTH 400 0
DWIDTH 5 0
BBX 5 5 0 5
BITMAP
70
88
88
88
70
ENDCHAR

STARTCHAR aogonek
ENCODING 177
SWIDTH 683 0
DWIDTH 9 0
BBX 9 9 1 -2
BITMAP
3A00
4600
8200
8200
8200
4600
3A00
0200
0180
ENDCHAR

STARTCHAR ogonek
ENCODING 178
SWIDTH 302 0
DWIDTH 4 0
BBX 3 2 2 -2
BITMAP
80
60
ENDCHAR

STARTCHAR lslash
ENCODING 179
SWIDTH 300 0
DWIDTH 3 0
BBX 3 10 0 0
BITMAP
40
40
40
60
40
C0
40
40
40
40
ENDCHAR

STARTCHAR acute
ENCODING 180
SWIDTH 375 0
DWIDTH 5 0
BBX 2 2 2 8
BITMAP
40
80
ENDCHAR

STARTCHAR lcaron
ENCODING 181
SWIDTH 206 0
DWIDTH 3 0
BBX 3 10 1 0
BITMAP
A0
A0
C0
80
80
80
80
80
80
80
ENDCHAR

STARTCHAR sacute
ENCODING 182
SWIDTH 388 0
DWIDTH 6 0
BBX 4 10 1 0
BITMAP
20
40
00
60
90
80
60
10
90
60
ENDCHAR

STARTCHAR caron
ENCODING 183
SWIDTH 502 0
DWIDTH 7 0
BBX 4 2 1 8
BITMAP
90
60
ENDCHAR

STARTCHAR commaaccent
ENCODING 184
SWIDTH 333 0
DWIDTH 4 0
BBX 2 2 1 -3
BITMAP
40
80
ENDCHAR

STARTCHAR scaron
ENCODING 185
SWIDTH 388 0
DWIDTH 6 0
BBX 4 10 1 0
BITMAP
90
60
00
60
90
80
60
10
90
60
ENDCHAR

STARTCHAR scommaaccent
ENCODING 186
SWIDTH 388 0
DWIDTH 6 0
BBX 4 10 1 -3
BITMAP
60
90
80
60
10
90
60
00
20
40
ENDCHAR

STARTCHAR tcaron
ENCODING 187
SWIDTH 380 0
DWIDTH 4 0
BBX 5 10 0 0
BITMAP
48
48
50
E0
40
40
40
40
40
40
ENDCHAR

STARTCHAR zacute
ENCODING 188
SWIDTH 425 0
DWIDTH 6 0
BBX 6 10 0 0
BITMAP
08
10
00
FC
08
10
20
20
40
FC
ENDCHAR

STARTCHAR hungarumlaut
ENCODING 189
SWIDTH 552 0
DWIDTH 7 0
BBX 5 2 2 8
BITMAP
48
90
ENDCHAR

STARTCHAR zcaron
ENCODING 190
SWIDTH 425 0
DWIDTH 6 0
BBX 6 10 0 0
BITMAP
48
30
00
FC
08
10
20
20
40
FC
ENDCHAR

STARTCHAR zdotaccent
ENCODING 191
SWIDTH 425 0
DWIDTH 6 0
BBX 6 9 0 0
BITMAP
10
00
FC
08
10
20
20
40
FC
ENDCHAR

STARTCHAR Racute
ENCODING 192
SWIDTH 607 0
DWIDTH 8 0
BBX 6 13 1 0
BITMAP
10
20
00
F8
84
84
84
F8
A0
90
88
88
84
ENDCHAR

STARTCHAR Aacute
ENCODING 193
SWIDTH 740 0
DWIDTH 9 0
BBX 9 13 0 0
BITMAP
0400
0800
0000
0800
0800
1400
1400
2200
2200
7F00
4100
8080
8080
ENDCHAR

STARTCHAR Acircumflex
ENCODING 194
SWIDTH 740 0
DWIDTH 9 0
BBX 9 13 0 0
BITMAP
0800
1400
0000
0800
0800
1400
1400
2200
2200
7F00
4100
8080
8080
ENDCHAR

STARTCHAR Abreve
ENCODING 195
SWIDTH 740 0
DWIDTH 9 0
BBX 9 13 0 0
BITMAP
2200
1C00
0000
0800
0800
1400
1400
2200
2200
7F00
4100
8080
8080
ENDCHAR

STARTCHAR Adieresis
ENCODING 196
SWIDTH 740 0
DWIDTH 9 0
BBX 9 12 0 0
BITMAP
2200
0000
0800
0800
1400
1400
2200
2200
7F00
4100
8080
8080
ENDCHAR

STARTCHAR Lacute
ENCODING 197
SWIDTH 462 0
DWIDTH 6 0
BBX 5 13 1 0
BITMAP
20
40
00
80
80
80
80
80
80
80
80
80
F8
ENDCHAR

STARTCHAR Cacute
ENCODING 198
SWIDTH 813 0
DWIDTH 11 0
BBX 9 13 1 0
BITMAP
0400
0800
0000
1E00
6180
4080
8000
8000
8000
8000
4080
6180
1E00
ENDCHAR

STARTCHAR Ccedilla
ENCODING 199
SWIDTH 813 0
DWIDTH 11 0
BBX 9 13 1 -3
BITMAP
1E00
6180
4080
8000
8000
8000
8000
4080
6180
1E00
0800
0400
1800
ENDCHAR

STARTCHAR Ccaron
ENCODING 200
SWIDTH 813 0
DWIDTH 11 0
BBX 9 13 1 0
BITMAP
1200
0C00
0000
1E00
6180
4080
8000
8000
8000
8000
4080
6180
1E00
ENDCHAR

STARTCHAR Eacute
ENCODING 201
SWIDTH 536 0
DWIDTH 7 0
BBX 5 13 1 0
BITMAP
10
20
00
F8
80
80
80
F8
80
80
80
80
F8
ENDCHAR

STARTCHAR Eogonek
ENCODING 202
SWIDTH 536 0
DWIDTH 7 0
BBX 5 12 1 -2
BITMAP
F8
80
80
80
F8
80
80
80
80
F8
20
18
ENDCHAR

STARTCHAR Edieresis
ENCODING 203
SWIDTH 536 0
DWIDTH 7 0
BBX 5 12 1 0
BITMAP
48
00
F8
80
80
80
F8
80
80
80
80
F8
ENDCHAR

STARTCHAR Ecaron
ENCODING 204
SWIDTH 536 0
DWIDTH 7 0
BBX 5 13 1 0
BITMAP
90
60
00
F8
80
80
80
F8
80
80
80
80
F8
ENDCHAR

STARTCHAR Iacute
ENCODING 205
SWIDTH 226 0
DWIDTH 3 0
BBX 2 13 1 0
BITMAP
40
80
00
80
80
80
80
80
80
80
80
80
80
ENDCHAR

STARTCHAR Icircumflex
ENCODING 206
SWIDTH 226 0
DWIDTH 3 0
BBX 3 13 0 0
BITMAP
40
A0
00
40
40
40
40
40
40
40
40
40
40
ENDCHAR

STARTCHAR Dcaron
ENCODING 207
SWIDTH 744 0
DWIDTH 10 0
BBX 8 13 1 0
BITMAP
48
30
00
F8
86
82
81
81
81
81
82
86
F8
ENDCHAR

STARTCHAR Dcroat
ENCODING 208
SWIDTH 790 0
DWIDTH 10 0
BBX 9 10 0 0
BITMAP
7C00
4300
4100
4080
F080
4080
4080
4100
4300
7C00
ENDCHAR

STARTCHAR Nacute
ENCODING 209
SWIDTH 740 0
DWIDTH 9 0
BBX 7 13 1 0
BITMAP
08
10
00
82
C2
A2
A2
92
92
8A
8A
86
82
ENDCHAR

STARTCHAR Ncaron
ENCODING 210
SWIDTH 740 0
DWIDTH 9 0
BBX 7 13 1 0
BITMAP
24
18
00
82
C2
A2
A2
92
92
8A
8A
86
82
ENDCHAR

STARTCHAR Oacute
ENCODING 211
SWIDTH 869 0
DWIDTH 12 0
BBX 10 13 1 0
BITMAP
0400
0800
0000
1E00
6180
4080
8040
8040
8040
8040
4080
6180
1E00
ENDCHAR

STARTCHAR Ocircumflex
ENCODING 212
SWIDTH 869 0
DWIDTH 12 0
BBX 10 13 1 0
BITMAP
0C00
1200
0000
1E00
6180
4080
8040
8040
8040
8040
4080
6180
1E00
ENDCHAR

STARTCHAR Ohungarumlaut
ENCODING 213
SWIDTH 869 0
DWIDTH 12 0
BBX 10 13 1 0
BITMAP
0900
1200
0000
1E00
6180
4080
8040
8040
8040
8040
4080
6180
1E00
ENDCHAR

STARTCHAR Odieresis
ENCODING 214
SWIDTH 869 0
DWIDTH 12 0
BBX 10 12 1 0
BITMAP
1200
0000
1E00
6180
4080
8040
8040
8040
8040
4080
6180
1E00
ENDCHAR

STARTCHAR multiply
ENCODING 215
SWIDTH 606 0
DWIDTH 8 0
BBX 6 5 1 2
BITMAP
84
48
30
48
84
ENDCHAR

STARTCHAR Rcaron
ENCODING 216
SWIDTH 607 0
DWIDTH 8 0
BBX 6 13 1 0
BITMAP
48
30
00
F8
84
84
84
F8
A0
90
88
88
84
ENDCHAR

STARTCHAR Uring
ENCODING 217
SWIDTH 655 0
DWIDTH 9 0
BBX 7 13 1 0
BITMAP
18
24
18
82
82
82
82
82
82
82
82
44
38
ENDCHAR

STARTCHAR Uacute
ENCODING 218
SWIDTH 655 0
DWIDTH 9 0
BBX 7 13 1 0
BITMAP
08
10
00
82
82
82
82
82
82
82
82
44
38
ENDCHAR

STARTCHAR Uhungarumlaut
ENCODING 219
SWIDTH 655 0
DWIDTH 9 0
BBX 7 13 1 0
BITMAP
12
24
00
82
82
82
82
82
82
82
82
44
38
ENDCHAR

STARTCHAR Udieresis
ENCODING 220
SWIDTH 655 0
DWIDTH 9 0
BBX 7 12 1 0
BITMAP
44
00
82
82
82
82
82
82
82
82
44
38
ENDCHAR

STARTCHAR Yacute
ENCODING 221
SWIDTH 592 0
DWIDTH 7 0
BBX 7 13 0 0
BITMAP
08
10
00
82
82
44
44
28
10
10
10
10
10
ENDCHAR

STARTCHAR Tcommaaccent
ENCODING 222
SWIDTH 426 0
DWIDTH 5 0
BBX 5 13 0 -3
BITMAP
F8
20
20
20
20
20
20
20
20
20
00
20
40
ENDCHAR

STARTCHAR germandbls
ENCODING 223
SWIDTH 554 0
DWIDTH 7 0
BBX 5 10 1 0
BITMAP
70
88
88
90
A0
90
88
88
88
B0
ENDCHAR

STARTCHAR racute
ENCODING 224
SWIDTH 301 0
DWIDTH 5 0
BBX 4 10 1 0
BITMAP
20
40
00
B0
C0
80
80
80
80
80
ENDCHAR

STARTCHAR aacute
ENCODING 225
SWIDTH 683 0
DWIDTH 9 0
BBX 7 10 1 0
BITMAP
08
10
00
3A
46
82
82
82
46
3A
ENDCHAR

STARTCHAR acircumflex
ENCODING 226
SWIDTH 683 0
DWIDTH 9 0
BBX 7 10 1 0
BITMAP
18
24
00
3A
46
82
82
82
46
3A
ENDCHAR

STARTCHAR abreve
ENCODING 227
SWIDTH 683 0
DWIDTH 9 0
BBX 7 10 1 0
BITMAP
42
3C
00
3A
46
82
82
82
46
3A
ENDCHAR

STARTCHAR adieresis
ENCODING 228
SWIDTH 683 0
DWIDTH 9 0
BBX 7 9 1 0
BITMAP
24
00
3A
46
82
82
82
46
3A
ENDCHAR

STARTCHAR lacute
ENCODING 229
SWIDTH 200 0
DWIDTH 3 0
BBX 2 13 1 0
BITMAP
40
80
00
80
80
80
80
80
80
80
80
80
80
ENDCHAR

STARTCHAR cacute
ENCODING 230
SWIDTH 647 0
DWIDTH 7 0
BBX 6 10 1 0
BITMAP
08
10
00
38
44
80
80
80
44
38
ENDCHAR

STARTCHAR ccedilla
ENCODING 231
SWIDTH 647 0
DWIDTH 8 0
BBX 6 10 1 -3
BITMAP
38
44
80
80
80
44
38
10
08
30
ENDCHAR

STARTCHAR ccaron
ENCODING 232
SWIDTH 647 0
DWIDTH 8 0
BBX 6 10 1 0
BITMAP
48
30
00
38
44
80
80
80
44
38
ENDCHAR

STARTCHAR eacute
ENCODING 233
SWIDTH 650 0
DWIDTH 8 0
BBX 7 10 1 0
BITMAP
08
10
00
38
44
82
FE
80
44
38
ENDCHAR

STARTCHAR eogonek
ENCODING 234
SWIDTH 650 0
DWIDTH 8 0
BBX 7 9 1 -2
BITMAP
38
44
82
FE
80
44
38
10
0C
ENDCHAR

STARTCHAR edieresis
ENCODING 235
SWIDTH 650 0
DWIDTH 8 0
BBX 7 9 1 0
BITMAP
24
00
38
44
82
FE
80
44
38
ENDCHAR

STARTCHAR ecaron
ENCODING 236
SWIDTH 650 0
DWIDTH 8 0
BBX 7 10 1 0
BITMAP
48
30
00
38
44
82
FE
80
44
38
ENDCHAR

STARTCHAR iacute
ENCODING 237
SWIDTH 200 0
DWIDTH 3 0
BBX 2 10 1 0
BITMAP
40
80
00
80
80
80
80
80
80
80
ENDCHAR

STARTCHAR icircumflex
ENCODING 238
SWIDTH 200 0
DWIDTH 3 0
BBX 3 10 0 0
BITMAP
40
A0
00
40
40
40
40
40
40
40
ENDCHAR

STARTCHAR dcaron
ENCODING 239
SWIDTH 685 0
DWIDTH 9 0
BBX 9 10 1 0
BITMAP
0280
0280
0300
3A00
4600
8200
8200
8200
4600
3A00
ENDCHAR

STARTCHAR dcroat
ENCODING 240
SWIDTH 685 0
DWIDTH 9 0
BBX 8 10 1 0
BITMAP
02
0F
02
3A
46
82
82
82
46
3A
ENDCHAR

STARTCHAR nacute
ENCODING 241
SWIDTH 610 0
DWIDTH 8 0
BBX 6 10 1 0
BITMAP
08
10
00
B8
C4
84
84
84
84
84
ENDCHAR

STARTCHAR ncaron
ENCODING 242
SWIDTH 610 0
DWIDTH 8 0
BBX 6 10 1 0
BITMAP
48
30
00
B8
C4
84
84
84
84
84
ENDCHAR

STARTCHAR oacute
ENCODING 243
SWIDTH 655 0
DWIDTH 9 0
BBX 7 10 1 0
BITMAP
08
10
00
38
44
82
82
82
44
38
ENDCHAR

STARTCHAR ocircumflex
ENCODING 244
SWIDTH 655 0
DWIDTH 9 0
BBX 7 10 1 0
BITMAP
18
24
00
38
44
82
82
82
44
38
ENDCHAR

STARTCHAR ohungarumlaut
ENCODING 245
SWIDTH 655 0
DWIDTH 9 0
BBX 7 10 1 0
BITMAP
12
24
00
38
44
82
82
82
44
38
ENDCHAR

STARTCHAR odieresis
ENCODING 246
SWIDTH 655 0
DWIDTH 9 0
BBX 7 9 1 0
BITMAP
24
00
38
44
82
82
82
44
38
ENDCHAR

STARTCHAR divide
ENCODING 247
SWIDTH 606 0
DWIDTH 8 0
BBX 7 5 1 2
BITMAP
10
00
FE
00
10
ENDCHAR

STARTCHAR rcaron
ENCODING 248
SWIDTH 301 0
DWIDTH 5 0
BBX 4 10 1 0
BITMAP
90
60
00
B0
C0
80
80
80
80
80
ENDCHAR

STARTCHAR uring
ENCODING 249
SWIDTH 608 0
DWIDTH 8 0
BBX 6 11 1 0
BITMAP
30
48
30
00
84
84
84
84
84
84
78
ENDCHAR

STARTCHAR uacute
ENCODING 250
SWIDTH 608 0
DWIDTH 8 0
BBX 6 10 1 0
BITMAP
10
20
00
84
84
84
84
84
84
78
ENDCHAR

STARTCHAR uhungarumlaut
ENCODING 251
SWIDTH 608 0
DWIDTH 8 0
BBX 6 10 1 0
BITMAP
24
48
00
84
84
84
84
84
84
78
ENDCHAR

STARTCHAR udieresis
ENCODING 252
SWIDTH 608 0
DWIDTH 8 0
BBX 6 9 1 0
BITMAP
48
00
84
84
84
84
84
84
78
ENDCHAR

STARTCHAR yacute
ENCODING 253
SWIDTH 536 0
DWIDTH 7 0
BBX 7 13 0 -3
BITMAP
08
10
00
82
82
44
44
28
28
10
10
20
20
ENDCHAR

STARTCHAR tcommaaccent
ENCODING 254
SWIDTH 339 0
DWIDTH 3 0
BBX 3 12 0 -3
BITMAP
40
40
E0
40
40
40
40
40
40
00
40
80
ENDCHAR

STARTCHAR dotaccent
ENCODING 255
SWIDTH 222 0
DWIDTH 3 0
BBX 1 1 1 8
BITMAP
80
ENDCHAR
ENDFONT
